<svg class="dn" height="0" version="1.1" width="0" xmlns="http://www.w3.org/2000/svg">
  <defs>
    <g id="profile-live-streaming">
      <path id="path0"
        d="M191.040 43.717 C 89.639 50.822,21.889 146.558,49.737 243.390 C 80.086 348.918,206.663 390.963,294.525 324.702 C 370.764 267.206,377.684 154.617,309.082 87.840 C 277.838 57.427,233.248 40.759,191.040 43.717 M214.080 62.885 C 284.680 70.347,337.395 129.012,337.434 200.160 C 337.454 237.764,322.230 274.110,296.400 298.122 L 293.945 300.405 292.283 295.840 C 283.039 270.457,267.043 252.280,243.153 240.008 L 237.825 237.272 239.153 236.320 C 252.903 226.457,263.435 210.700,266.531 195.360 C 279.280 132.204,208.979 87.881,158.018 126.944 C 122.321 154.305,123.168 208.578,159.714 235.727 L 161.955 237.391 156.496 240.170 C 132.558 252.358,114.837 273.053,106.859 298.137 L 106.129 300.434 103.034 297.579 C 77.032 273.585,61.238 234.440,62.181 196.320 C 64.156 116.428,134.664 54.491,214.080 62.885 M208.320 131.713 C 243.290 137.670,260.895 178.298,241.240 207.680 C 218.360 241.882,165.876 234.962,153.134 196.064 C 141.488 160.513,171.558 125.450,208.320 131.713 M210.240 249.161 C 239.967 252.941,265.369 273.935,274.851 302.560 C 278.652 314.035,278.706 313.926,265.702 321.077 C 224.862 343.536,173.552 343.162,132.480 320.106 C 122.201 314.336,121.766 313.777,123.191 308.194 C 133.155 269.170,170.172 244.066,210.240 249.161 "
        stroke="none" fill="#f25529" fill-rule="evenodd"></path>
      <path id="path1"
        d="M102.232 102.800 L 99.680 105.440 102.320 102.888 C 103.772 101.484,104.960 100.296,104.960 100.248 C 104.960 100.014,104.603 100.348,102.232 102.800 M132.300 257.040 L 131.360 258.080 132.400 257.140 C 133.369 256.264,133.587 256.000,133.340 256.000 C 133.285 256.000,132.817 256.468,132.300 257.040 M268.960 258.560 C 269.647 259.264,270.282 259.840,270.370 259.840 C 270.458 259.840,269.967 259.264,269.280 258.560 C 268.593 257.856,267.958 257.280,267.870 257.280 C 267.782 257.280,268.273 257.856,268.960 258.560 M100.320 295.040 C 101.543 296.272,102.615 297.280,102.703 297.280 C 102.791 297.280,101.863 296.272,100.640 295.040 C 99.417 293.808,98.345 292.800,98.257 292.800 C 98.169 292.800,99.097 293.808,100.320 295.040 M297.748 296.720 L 296.160 298.400 297.840 296.812 C 299.401 295.336,299.667 295.040,299.428 295.040 C 299.377 295.040,298.621 295.796,297.748 296.720 "
        stroke="none" fill="#f25529" fill-rule="evenodd"></path>
      <path id="path2"
        d="M102.232 102.800 L 99.680 105.440 102.320 102.888 C 103.772 101.484,104.960 100.296,104.960 100.248 C 104.960 100.014,104.603 100.348,102.232 102.800 M132.300 257.040 L 131.360 258.080 132.400 257.140 C 133.369 256.264,133.587 256.000,133.340 256.000 C 133.285 256.000,132.817 256.468,132.300 257.040 M268.960 258.560 C 269.647 259.264,270.282 259.840,270.370 259.840 C 270.458 259.840,269.967 259.264,269.280 258.560 C 268.593 257.856,267.958 257.280,267.870 257.280 C 267.782 257.280,268.273 257.856,268.960 258.560 M100.320 295.040 C 101.543 296.272,102.615 297.280,102.703 297.280 C 102.791 297.280,101.863 296.272,100.640 295.040 C 99.417 293.808,98.345 292.800,98.257 292.800 C 98.169 292.800,99.097 293.808,100.320 295.040 M297.748 296.720 L 296.160 298.400 297.840 296.812 C 299.401 295.336,299.667 295.040,299.428 295.040 C 299.377 295.040,298.621 295.796,297.748 296.720 "
        stroke="none" fill="#f25529" fill-rule="evenodd"></path>
      <path id="path3"
        d="M102.232 102.800 L 99.680 105.440 102.320 102.888 C 103.772 101.484,104.960 100.296,104.960 100.248 C 104.960 100.014,104.603 100.348,102.232 102.800 M132.300 257.040 L 131.360 258.080 132.400 257.140 C 133.369 256.264,133.587 256.000,133.340 256.000 C 133.285 256.000,132.817 256.468,132.300 257.040 M268.960 258.560 C 269.647 259.264,270.282 259.840,270.370 259.840 C 270.458 259.840,269.967 259.264,269.280 258.560 C 268.593 257.856,267.958 257.280,267.870 257.280 C 267.782 257.280,268.273 257.856,268.960 258.560 M100.320 295.040 C 101.543 296.272,102.615 297.280,102.703 297.280 C 102.791 297.280,101.863 296.272,100.640 295.040 C 99.417 293.808,98.345 292.800,98.257 292.800 C 98.169 292.800,99.097 293.808,100.320 295.040 M297.748 296.720 L 296.160 298.400 297.840 296.812 C 299.401 295.336,299.667 295.040,299.428 295.040 C 299.377 295.040,298.621 295.796,297.748 296.720 "
        stroke="none" fill="#f25529" fill-rule="evenodd"></path>
      <path id="path4"
        d="M102.232 102.800 L 99.680 105.440 102.320 102.888 C 103.772 101.484,104.960 100.296,104.960 100.248 C 104.960 100.014,104.603 100.348,102.232 102.800 M132.300 257.040 L 131.360 258.080 132.400 257.140 C 133.369 256.264,133.587 256.000,133.340 256.000 C 133.285 256.000,132.817 256.468,132.300 257.040 M268.960 258.560 C 269.647 259.264,270.282 259.840,270.370 259.840 C 270.458 259.840,269.967 259.264,269.280 258.560 C 268.593 257.856,267.958 257.280,267.870 257.280 C 267.782 257.280,268.273 257.856,268.960 258.560 M100.320 295.040 C 101.543 296.272,102.615 297.280,102.703 297.280 C 102.791 297.280,101.863 296.272,100.640 295.040 C 99.417 293.808,98.345 292.800,98.257 292.800 C 98.169 292.800,99.097 293.808,100.320 295.040 M297.748 296.720 L 296.160 298.400 297.840 296.812 C 299.401 295.336,299.667 295.040,299.428 295.040 C 299.377 295.040,298.621 295.796,297.748 296.720 "
        stroke="none" fill="#f25529" fill-rule="evenodd"></path>
    </g>
    <g id="message-live-streaming">
      <path id="path0"
        d="M198.400 44.028 C 198.136 44.090,193.528 44.589,188.160 45.136 C 171.802 46.804,162.031 48.794,149.906 52.927 C 60.235 83.493,18.642 184.503,60.633 269.732 C 65.028 278.653,64.921 277.600,62.260 285.716 C 54.584 309.128,44.761 340.158,44.492 341.845 C 43.274 349.466,48.684 355.702,56.480 355.662 L 60.000 355.644 71.840 351.763 C 110.866 338.971,119.810 336.177,121.760 336.168 C 123.559 336.161,124.093 336.365,130.240 339.422 C 195.239 371.737,272.774 355.960,318.383 301.138 C 351.503 261.327,362.581 216.845,351.827 166.844 C 337.054 98.148,278.632 48.538,207.360 44.167 C 202.164 43.848,199.345 43.804,198.400 44.028 M214.400 69.960 C 266.446 75.064,313.249 115.041,326.390 165.616 C 335.608 201.092,330.869 236.743,312.978 266.513 C 275.247 329.301,198.968 349.595,134.720 313.939 C 128.539 310.508,127.703 310.237,123.360 310.253 L 119.840 310.266 110.560 313.351 C 97.991 317.530,76.045 324.472,75.891 324.317 C 75.745 324.172,80.221 310.093,86.012 292.480 L 90.063 280.160 90.072 276.640 C 90.082 272.407,89.800 271.541,86.632 266.080 C 52.260 206.822,68.755 132.640,125.214 92.567 C 150.154 74.865,182.027 66.786,214.400 69.960 M135.471 185.414 C 123.471 188.325,119.940 204.269,129.526 212.260 C 137.931 219.267,151.450 214.755,153.901 204.124 C 156.531 192.715,146.665 182.699,135.471 185.414 M196.320 185.412 C 184.943 188.235,180.822 202.141,188.826 210.697 C 198.283 220.806,215.007 214.316,215.154 200.480 C 215.261 190.460,205.961 183.019,196.320 185.412 M256.714 185.456 C 241.083 189.664,242.192 212.674,258.157 215.412 C 267.489 217.012,275.840 209.885,275.840 200.320 C 275.840 190.197,266.388 182.852,256.714 185.456 "
        stroke="none" fill="#ccd4d4" fill-rule="evenodd"></path>
      <path id="path1"
        d="M309.920 89.920 C 311.497 91.504,312.859 92.800,312.947 92.800 C 313.035 92.800,311.817 91.504,310.240 89.920 C 308.663 88.336,307.301 87.040,307.213 87.040 C 307.125 87.040,308.343 88.336,309.920 89.920 M89.425 90.320 L 88.160 91.680 89.520 90.415 C 90.785 89.239,91.027 88.960,90.785 88.960 C 90.733 88.960,90.121 89.572,89.425 90.320 M188.940 189.520 L 188.000 190.560 189.040 189.620 C 189.612 189.103,190.080 188.635,190.080 188.580 C 190.080 188.333,189.816 188.551,188.940 189.520 M308.469 311.920 L 306.720 313.760 308.560 312.011 C 310.269 310.386,310.547 310.080,310.309 310.080 C 310.259 310.080,309.431 310.908,308.469 311.920 "
        stroke="none" fill="#ccd4d4" fill-rule="evenodd"></path>
      <path id="path2"
        d="M309.920 89.920 C 311.497 91.504,312.859 92.800,312.947 92.800 C 313.035 92.800,311.817 91.504,310.240 89.920 C 308.663 88.336,307.301 87.040,307.213 87.040 C 307.125 87.040,308.343 88.336,309.920 89.920 M89.425 90.320 L 88.160 91.680 89.520 90.415 C 90.785 89.239,91.027 88.960,90.785 88.960 C 90.733 88.960,90.121 89.572,89.425 90.320 M188.940 189.520 L 188.000 190.560 189.040 189.620 C 189.612 189.103,190.080 188.635,190.080 188.580 C 190.080 188.333,189.816 188.551,188.940 189.520 M308.469 311.920 L 306.720 313.760 308.560 312.011 C 310.269 310.386,310.547 310.080,310.309 310.080 C 310.259 310.080,309.431 310.908,308.469 311.920 "
        stroke="none" fill="#ccd4d4" fill-rule="evenodd"></path>
      <path id="path3"
        d="M309.920 89.920 C 311.497 91.504,312.859 92.800,312.947 92.800 C 313.035 92.800,311.817 91.504,310.240 89.920 C 308.663 88.336,307.301 87.040,307.213 87.040 C 307.125 87.040,308.343 88.336,309.920 89.920 M89.425 90.320 L 88.160 91.680 89.520 90.415 C 90.785 89.239,91.027 88.960,90.785 88.960 C 90.733 88.960,90.121 89.572,89.425 90.320 M188.940 189.520 L 188.000 190.560 189.040 189.620 C 189.612 189.103,190.080 188.635,190.080 188.580 C 190.080 188.333,189.816 188.551,188.940 189.520 M308.469 311.920 L 306.720 313.760 308.560 312.011 C 310.269 310.386,310.547 310.080,310.309 310.080 C 310.259 310.080,309.431 310.908,308.469 311.920 "
        stroke="none" fill="#ccd4d4" fill-rule="evenodd"></path>
      <path id="path4"
        d="M309.920 89.920 C 311.497 91.504,312.859 92.800,312.947 92.800 C 313.035 92.800,311.817 91.504,310.240 89.920 C 308.663 88.336,307.301 87.040,307.213 87.040 C 307.125 87.040,308.343 88.336,309.920 89.920 M89.425 90.320 L 88.160 91.680 89.520 90.415 C 90.785 89.239,91.027 88.960,90.785 88.960 C 90.733 88.960,90.121 89.572,89.425 90.320 M188.940 189.520 L 188.000 190.560 189.040 189.620 C 189.612 189.103,190.080 188.635,190.080 188.580 C 190.080 188.333,189.816 188.551,188.940 189.520 M308.469 311.920 L 306.720 313.760 308.560 312.011 C 310.269 310.386,310.547 310.080,310.309 310.080 C 310.259 310.080,309.431 310.908,308.469 311.920 "
        stroke="none" fill="#ccd4d4" fill-rule="evenodd"></path>
    </g>
    <g id="arrow-right-live-streaming">
      <path id="path0"
        d="M147.020 51.211 C 142.101 52.771,130.587 63.504,127.759 69.165 C 124.607 75.476,125.252 81.338,129.748 87.236 C 131.455 89.476,239.156 197.109,240.895 198.313 L 242.590 199.487 185.964 256.144 C 147.728 294.400,128.970 313.383,128.207 314.596 C 125.192 319.386,124.885 325.784,127.442 330.513 C 129.493 334.306,135.237 340.762,139.837 344.445 C 144.871 348.475,146.691 349.261,151.200 349.349 C 154.878 349.421,158.278 348.629,159.659 347.379 C 159.962 347.105,160.379 346.880,160.585 346.880 C 160.791 346.880,160.960 346.746,160.960 346.582 C 160.960 346.417,161.284 346.186,161.680 346.068 C 162.315 345.878,203.774 304.691,276.015 232.484 C 288.695 219.810,299.273 209.008,299.521 208.480 C 299.769 207.952,300.144 207.304,300.353 207.040 C 300.766 206.519,301.699 203.941,302.032 202.400 C 302.691 199.354,301.721 195.033,299.633 191.716 C 297.838 188.864,161.991 53.120,160.932 53.120 C 160.711 53.120,160.282 52.895,159.979 52.621 C 157.859 50.702,150.983 49.954,147.020 51.211 "
        stroke="none" fill="#ccd4d4" fill-rule="evenodd"></path>
      <path id="path1"
        d="M150.800 50.473 C 151.460 50.542,152.540 50.542,153.200 50.473 C 153.860 50.404,153.320 50.348,152.000 50.348 C 150.680 50.348,150.140 50.404,150.800 50.473 M174.240 65.920 C 180.750 72.432,186.149 77.760,186.237 77.760 C 186.325 77.760,181.070 72.432,174.560 65.920 C 168.050 59.408,162.651 54.080,162.563 54.080 C 162.475 54.080,167.730 59.408,174.240 65.920 M135.036 60.080 L 130.720 64.480 135.120 60.164 C 137.540 57.791,139.520 55.811,139.520 55.764 C 139.520 55.535,139.044 55.993,135.036 60.080 M127.263 69.604 C 126.970 70.218,126.796 70.720,126.877 70.720 C 127.096 70.720,128.067 68.761,127.921 68.614 C 127.852 68.545,127.555 68.990,127.263 69.604 M125.539 76.640 C 125.541 77.696,125.601 78.089,125.672 77.514 C 125.743 76.939,125.742 76.075,125.669 75.594 C 125.596 75.113,125.537 75.584,125.539 76.640 M151.840 110.080 C 162.927 121.168,172.070 130.240,172.158 130.240 C 172.246 130.240,163.247 121.168,152.160 110.080 C 141.073 98.992,131.930 89.920,131.842 89.920 C 131.754 89.920,140.753 98.992,151.840 110.080 M258.720 150.080 C 280.191 171.552,297.831 189.120,297.919 189.120 C 298.007 189.120,280.511 171.552,259.040 150.080 C 237.569 128.608,219.929 111.040,219.841 111.040 C 219.753 111.040,237.249 128.608,258.720 150.080 M301.159 194.560 C 301.153 194.824,301.347 195.472,301.588 196.000 C 302.154 197.236,302.163 196.661,301.600 195.200 C 301.363 194.584,301.164 194.296,301.159 194.560 M242.040 199.266 C 242.164 199.391,216.880 224.915,185.853 255.986 L 129.440 312.480 185.981 256.019 C 217.079 224.966,242.450 199.442,242.362 199.299 C 242.274 199.157,242.115 199.040,242.008 199.040 C 241.901 199.040,241.915 199.142,242.040 199.266 M289.757 218.960 L 282.080 226.720 289.840 219.043 C 297.051 211.908,297.744 211.200,297.517 211.200 C 297.472 211.200,293.980 214.692,289.757 218.960 M208.893 299.440 C 184.656 323.684,164.718 343.664,164.586 343.840 C 164.454 344.016,184.320 324.216,208.733 299.840 C 233.146 275.465,253.120 255.485,253.120 255.440 C 253.120 255.217,249.865 258.455,208.893 299.440 M125.548 323.200 C 125.548 324.520,125.604 325.060,125.673 324.400 C 125.742 323.740,125.742 322.660,125.673 322.000 C 125.604 321.340,125.548 321.880,125.548 323.200 M126.623 329.520 C 126.854 330.155,127.680 331.438,127.680 331.160 C 127.680 330.882,126.690 328.960,126.547 328.960 C 126.477 328.960,126.511 329.212,126.623 329.520 M134.874 340.086 C 136.631 341.887,138.102 343.360,138.144 343.360 C 138.496 343.360,137.346 342.115,134.751 339.686 L 131.680 336.813 134.874 340.086 M144.800 348.160 C 145.328 348.510,145.904 348.796,146.080 348.797 C 146.256 348.797,145.929 348.510,145.352 348.159 C 143.994 347.330,143.549 347.331,144.800 348.160 M150.480 349.673 C 151.140 349.742,152.220 349.742,152.880 349.673 C 153.540 349.604,153.000 349.548,151.680 349.548 C 150.360 349.548,149.820 349.604,150.480 349.673 "
        stroke="none" fill="#ccccd4" fill-rule="evenodd"></path>
      <path id="path2" d="" stroke="none" fill="#d0d4d4" fill-rule="evenodd"></path>
      <path id="path3" d="" stroke="none" fill="#d0d4d4" fill-rule="evenodd"></path>
      <path id="path4" d="" stroke="none" fill="#d0d4d4" fill-rule="evenodd"></path>
    </g>
    <g id="viewers-live-streaming" transform="matrix(12.5, 0, 0, 12.5, 43.400002, 43.400002)">
      <path d="M0 0h24v24H0z" fill="none" />
      <path
        d="M12 4.5C7 4.5 2.73 7.61 1 12c1.73 4.39 6 7.5 11 7.5s9.27-3.11 11-7.5c-1.73-4.39-6-7.5-11-7.5zM12 17c-2.76 0-5-2.24-5-5s2.24-5 5-5 5 2.24 5 5-2.24 5-5 5zm0-8c-1.66 0-3 1.34-3 3s1.34 3 3 3 3-1.34 3-3-1.34-3-3-3z"
        fill="currentColor" />
    </g>
    <g id="picture-and-picture-alt-live-streaming" transform="matrix(12.5, 0, 0, 12.5, 43.400002, 43.400002)">
      <path d="M0 0h24v24H0V0z" fill="none"></path>
      <path
        d="M19 11h-8v6h8v-6zm4 8V4.98C23 3.88 22.1 3 21 3H3c-1.1 0-2 .88-2 1.98V19c0 1.1.9 2 2 2h18c1.1 0 2-.9 2-2zm-2 .02H3V4.97h18v14.05z"
        fill="currentColor"></path>
    </g>
    <g id="picture-and-picture-live-streaming" transform="matrix(12.5, 0, 0, 12.5, 43.400002, 43.400002)" style="">
      <path d="M0 0h24v24H0z" fill="none"></path>
      <path
        d="M19 7h-8v6h8V7zm2-4H3c-1.1 0-2 .9-2 2v14c0 1.1.9 1.98 2 1.98h18c1.1 0 2-.88 2-1.98V5c0-1.1-.9-2-2-2zm0 16.01H3V4.98h18v14.03z"
        fill="currentColor"></path>
    </g>
    <g id="volume-up-live-streaming" style="" transform="matrix(12.5, 0, 0, 12.5, 43.400002, 43.400002)">
      <path d="M0 0h24v24H0z" fill="none"></path>
      <path
        d="M3 9v6h4l5 5V4L7 9H3zm13.5 3c0-1.77-1.02-3.29-2.5-4.03v8.05c1.48-.73 2.5-2.25 2.5-4.02zM14 3.23v2.06c2.89.86 5 3.54 5 6.71s-2.11 5.85-5 6.71v2.06c4.01-.91 7-4.49 7-8.77s-2.99-7.86-7-8.77z"
        fill="currentColor"></path>
    </g>
    <g id="volume-off-live-streaming" style="" transform="matrix(12.5, 0, 0, 12.5, 43.400002, 43.400002)">
      <path d="M0 0h24v24H0z" fill="none"></path>
      <path
        d="M16.5 12c0-1.77-1.02-3.29-2.5-4.03v2.21l2.45 2.45c.03-.2.05-.41.05-.63zm2.5 0c0 .94-.2 1.82-.54 2.64l1.51 1.51C20.63 14.91 21 13.5 21 12c0-4.28-2.99-7.86-7-8.77v2.06c2.89.86 5 3.54 5 6.71zM4.27 3L3 4.27 7.73 9H3v6h4l5 5v-6.73l4.25 4.25c-.67.52-1.42.93-2.25 1.18v2.06c1.38-.31 2.63-.95 3.69-1.81L19.73 21 21 19.73l-9-9L4.27 3zM12 4L9.91 6.09 12 8.18V4z"
        fill="currentColor"></path>
    </g>
    <g id="fullscreen-exit-live-streaming" transform="matrix(12.5, 0, 0, 12.5, 43.400002, 43.400002)">
      <path d="M0 0h24v24H0z" fill="none"></path>
      <path d="M5 16h3v3h2v-5H5v2zm3-8H5v2h5V5H8v3zm6 11h2v-3h3v-2h-5v5zm2-11V5h-2v5h5V8h-3z" fill="currentColor">
      </path>
    </g>
    <g id="fullscreen-live-streaming" transform="matrix(12.5, 0, 0, 12.5, 43.400002, 43.400002)">
      <path d="M7 14H5v5h5v-2H7v-3zm-2-4h2V7h3V5H5v5zm12 7h-3v2h5v-5h-2v3zM14 5v2h3v3h2V5h-5z" fill="currentColor">
      </path>
    </g>
    <g id="loading-grounded-live-streaming" style="" transform="matrix(3.09299, 0, 0, 3.09299, 44.762802, 44.971462)">
      <path d="M6,43.59a44.51,44.51,0,0,1,87.71-2.2" fill="none" stroke="currentColor" stroke-miterlimit="10"
        stroke-width="2px" />
      <polygon points="84.06 36.84 85.17 35.17 93.36 40.67 98.25 32.1 99.98 33.09 94.03 43.53 84.06 36.84"
        fill="currentColor" />
      <path d="M93.92,57.22A44.51,44.51,0,0,1,6.54,59.57" fill="none" stroke="currentColor" stroke-miterlimit="10"
        stroke-width="2px" />
      <polygon points="16.24 63.91 15.16 65.6 6.86 60.28 2.16 68.95 0.4 68 6.13 57.44 16.24 63.91"
        fill="currentColor" />
    </g>
    <g id="pause-grounded-live-streaming" transform="matrix(3.384615, 0, 0, 3.384615, 28.969231, 28.969231)" style="">
      <circle cx="50" cy="50" r="45.5" fill="none" stroke="currentColor" stroke-miterlimit="10" stroke-width="2px" />
      <rect x="52.87" y="28.68" width="14.76" height="43.04" fill="none" stroke="currentColor" stroke-miterlimit="10"
        stroke-width="2px" />
      <rect x="29.91" y="28.68" width="14.76" height="43.04" fill="none" stroke="currentColor" stroke-miterlimit="10"
        stroke-width="2px" />
    </g>
    <g id="play-grounded-live-streaming" transform="matrix(3.460674, 0, 0, 3.460674, 25.166292, 25.166292)" style="">
      <circle cx="50" cy="50" r="44.5" fill="none" stroke="currentColor" stroke-miterlimit="10" stroke-width="2px" />
      <polygon points="36.77 71.25 36.77 29.15 73.65 50.2 36.77 71.25" fill="none" stroke="currentColor"
        stroke-miterlimit="10" stroke-width="2px" />
    </g>
    <g id="muted-grounded-live-streaming" transform="matrix(3.384615, 0, 0, 3.384615, 29, 29)" style="">
      <circle cx="50" cy="50" r="45.5" fill="none" stroke="currentColor" stroke-miterlimit="10" stroke-width="2px" />
      <path fill="none" stroke="currentColor"
        d="M 60.516 50.274 C 60.516 45.918 58.002 42.174 54.358 40.354 L 54.358 45.795 L 60.391 51.828 C 60.465 51.333 60.516 50.819 60.516 50.274 Z M 66.669 50.274 C 66.669 52.59 66.177 54.756 65.34 56.775 L 69.06 60.494 C 70.682 57.441 71.595 53.971 71.595 50.274 C 71.595 39.738 64.23 30.924 54.358 28.683 L 54.358 33.756 C 61.476 35.872 66.669 42.47 66.669 50.274 Z M 30.403 28.116 L 27.277 31.242 L 38.922 42.891 L 27.277 42.891 L 27.277 57.663 L 37.124 57.663 L 49.435 69.972 L 49.435 53.403 L 59.897 63.867 C 58.248 65.148 56.403 66.156 54.358 66.771 L 54.358 71.843 C 57.756 71.08 60.834 69.505 63.444 67.389 L 68.469 72.435 L 71.595 69.308 L 49.435 47.148 L 30.403 28.116 Z M 49.435 30.58 L 44.289 35.724 L 49.435 40.871 L 49.435 30.58 Z"
        transform="matrix(0.999958, 0.009193, -0.009193, 0.999958, 0.464272, -0.452341)" />
    </g>
    <g id="share-live-streaming" transform="matrix(12.5, 0, 0, 12.5, 43.400002, 43.400002)">
      <path fill="currentColor"
        d="M 270.6 198.46 L 202.216 123.5 L 202.216 168.401 L 194.273 168.401 C 174.595 168.401 156.093 176.063 142.178 189.973 C 128.263 203.883 120.6 222.378 120.6 242.05 L 120.6 273.5 L 133.724 259.125 C 151.28 239.898 176.2 228.776 202.216 228.522 L 202.216 273.42 Z M 129.393 250.902 L 129.393 242.05 C 129.393 224.726 136.142 208.438 148.396 196.188 C 160.65 183.938 176.943 177.192 194.273 177.192 L 211.008 177.192 L 211.008 146.183 L 258.701 198.46 L 211.008 250.737 L 211.008 219.729 L 203.12 219.729 C 175.365 219.729 148.675 231.053 129.393 250.902 Z M 129.393 250.902">
      </path>
    </g>
    <g id="share-live-streaming2" transform="matrix(0.319603, 0, 0, 0.292969, 77.504707, 139.119049)"
      bx:origin="0.504667 0.504666">
      <path fill="currentColor"
        d="M 588.172 32.019 C 588.172 70.312 557.133 101.355 518.84 101.355 C 480.547 101.355 449.508 70.312 449.508 32.019 C 449.508 -6.27 480.547 -37.313 518.84 -37.313 C 557.133 -37.313 588.172 -6.27 588.172 32.019 Z M 588.172 32.019" />
      <path fill="currentColor"
        d="M 518.84 117.355 C 471.778 117.355 433.508 79.081 433.508 32.019 C 433.508 -15.04 471.778 -53.313 518.84 -53.313 C 565.903 -53.313 604.172 -15.04 604.172 32.019 C 604.172 79.081 565.903 117.355 518.84 117.355 Z M 518.84 -21.313 C 489.422 -21.313 465.508 2.624 465.508 32.019 C 465.508 61.417 489.422 85.355 518.84 85.355 C 548.258 85.355 572.172 61.417 572.172 32.019 C 572.172 2.624 548.258 -21.313 518.84 -21.313 Z M 518.84 -21.313" />
      <path fill="currentColor"
        d="M 588.172 373.355 C 588.172 411.644 557.133 442.687 518.84 442.687 C 480.547 442.687 449.508 411.644 449.508 373.355 C 449.508 335.062 480.547 304.019 518.84 304.019 C 557.133 304.019 588.172 335.062 588.172 373.355 Z M 588.172 373.355" />
      <path fill="currentColor"
        d="M 518.84 458.687 C 471.778 458.687 433.508 420.413 433.508 373.355 C 433.508 326.292 471.778 288.019 518.84 288.019 C 565.903 288.019 604.172 326.292 604.172 373.355 C 604.172 420.413 565.903 458.687 518.84 458.687 Z M 518.84 320.019 C 489.422 320.019 465.508 343.956 465.508 373.355 C 465.508 402.749 489.422 426.687 518.84 426.687 C 548.258 426.687 572.172 402.749 572.172 373.355 C 572.172 343.956 548.258 320.019 518.84 320.019 Z M 518.84 320.019" />
      <path fill="currentColor"
        d="M 289.508 202.687 C 289.508 240.98 258.465 272.019 220.172 272.019 C 181.883 272.019 150.84 240.98 150.84 202.687 C 150.84 164.394 181.883 133.355 220.172 133.355 C 258.465 133.355 289.508 164.394 289.508 202.687 Z M 289.508 202.687" />
      <path fill="currentColor"
        d="M 220.172 288.019 C 173.114 288.019 134.84 249.749 134.84 202.687 C 134.84 155.624 173.114 117.355 220.172 117.355 C 267.235 117.355 305.508 155.624 305.508 202.687 C 305.508 249.749 267.235 288.019 220.172 288.019 Z M 220.172 149.355 C 190.754 149.355 166.84 173.288 166.84 202.687 C 166.84 232.085 190.754 256.019 220.172 256.019 C 249.594 256.019 273.508 232.085 273.508 202.687 C 273.508 173.288 249.594 149.355 220.172 149.355 Z M 220.172 149.355" />
      <path fill="currentColor"
        d="M 270.543 192.448 C 263.118 192.448 255.907 188.585 251.981 181.675 C 246.157 171.456 249.743 158.421 259.961 152.573 L 457.91 39.722 C 468.129 33.855 481.164 37.441 487.012 47.698 C 492.836 57.917 489.25 70.952 479.032 76.8 L 281.078 189.652 C 277.75 191.55 274.125 192.448 270.543 192.448 Z M 270.543 192.448" />
      <path fill="currentColor"
        d="M 468.473 368.448 C 464.887 368.448 461.262 367.55 457.934 365.652 L 259.981 252.8 C 249.762 246.976 246.18 233.941 252.004 223.698 C 257.805 213.46 270.86 209.855 281.102 215.722 L 479.055 328.573 C 489.274 334.398 492.856 347.433 487.032 357.675 C 483.086 364.585 475.875 368.448 468.473 368.448 Z M 468.473 368.448" />
    </g>
    <g id="share-live-streaming3" transform="matrix(0.292969, 0, 0, 0.321229, 87.346291, 133.391266)"
      bx:origin="0.504666 0.504666">
      <path fill="currentColor"
        d="M 625.506 202.529 L 412.729 -30.792 L 412.729 108.411 L 367.491 108.411 C 227.217 108.411 113.506 222.122 113.506 362.396 L 113.506 436.165 L 133.6 414.146 C 201.916 339.294 298.58 296.646 399.924 296.646 L 412.729 296.646 L 412.729 435.849 Z M 625.506 202.529" />
    </g>
    <g id="share-live-streaming4" transform="matrix(0.3125, 0, 0, 0.321229, 85.12941, 126.740936)"
      bx:origin="0.504666 0.504666">
      <path fill="currentColor"
        d="M 687.586 222.854 L 421.615 -41.585 L 421.615 116.184 L 365.068 116.184 C 189.724 116.184 47.586 245.06 47.586 404.043 L 47.586 487.65 L 72.703 462.695 C 158.099 377.859 278.928 329.523 405.608 329.523 L 421.615 329.523 L 421.615 487.292 Z M 687.586 222.854"
        style="" />
    </g>

    <g id='mpa-heart' transform='matrix(15.999906, 0, 0, 16.05549, 41.197601, 4.585286)'>
      <path
        d='M14.682 2.31811C14.2647 1.89959 13.7687 1.56769 13.2226 1.3415C12.6765 1.11531 12.0911 0.99929 11.5 1.00011C10.8245 0.995238 10.157 1.14681 9.54975 1.44295C8.94255 1.73909 8.41213 2.17178 8.00004 2.70711C7.58764 2.17212 7.05716 1.73969 6.45002 1.44358C5.84289 1.14747 5.17552 0.995697 4.50004 1.00011C3.61002 1.00011 2.73998 1.26402 1.99995 1.75849C1.25993 2.25295 0.683144 2.95576 0.342546 3.77803C0.00194874 4.60031 -0.0871663 5.50511 0.0864704 6.37803C0.260107 7.25095 0.688697 8.05278 1.31804 8.68211L8.00004 15.0001L14.682 8.68211C15.0999 8.26425 15.4314 7.76817 15.6575 7.2222C15.8837 6.67623 16.0001 6.09107 16.0001 5.50011C16.0001 4.90916 15.8837 4.32399 15.6575 3.77803C15.4314 3.23206 15.0999 2.73598 14.682 2.31811V2.31811ZM13.282 7.25111L8.00004 12.2471L2.71504 7.24711C2.37145 6.8954 2.1392 6.45018 2.04734 5.96715C1.95549 5.48412 2.00811 4.98473 2.19862 4.53145C2.38913 4.07817 2.70908 3.69113 3.11843 3.41876C3.52778 3.14638 4.00835 3.00076 4.50004 3.00011C5.93704 3.00011 6.81204 3.68111 8.00004 5.62511C9.18704 3.68111 10.062 3.00011 11.5 3.00011C11.9925 2.99999 12.4741 3.14534 12.8843 3.41791C13.2945 3.69048 13.615 4.07814 13.8057 4.53223C13.9964 4.98632 14.0487 5.48661 13.956 5.97031C13.8634 6.45402 13.63 6.89959 13.285 7.25111H13.282Z'
        fill='currentColor' />
    </g>
  </defs>
</svg>
